<?xml version="1.0"?>
<svg xmlns="http://www.w3.org/2000/svg" xmlns:xlink="http://www.w3.org/1999/xlink" version="1.1" xml:space="preserve">
	<defs>
		<symbol id="email" width="100%" height="100%" viewBox="0 0 32 32">
			<path fill-rule="evenodd" clip-rule="evenodd" d="M5.17157 7.83832C4 9.00989 4 10.8955 4 14.6667V17.3334C4 21.1047 4 22.9903 5.17157 24.1618C6.34315 25.3334 8.22876 25.3334 12 25.3334H20C23.7712 25.3334 25.6569 25.3334 26.8284 24.1618C28 22.9903 28 21.1047 28 17.3334V14.6667C28 10.8955 28 9.00989 26.8284 7.83832C25.6569 6.66675 23.7712 6.66675 20 6.66675H12C8.22876 6.66675 6.34315 6.66675 5.17157 7.83832ZM8.7396 10.8907C8.1269 10.4822 7.29907 10.6478 6.8906 11.2605C6.48213 11.8732 6.64769 12.701 7.2604 13.1095L14.5208 17.9497C15.4165 18.5469 16.5835 18.5469 17.4792 17.9497L24.7396 13.1095C25.3523 12.701 25.5179 11.8732 25.1094 11.2605C24.7009 10.6478 23.8731 10.4822 23.2604 10.8907L16 15.7309L8.7396 10.8907Z" fill="currentColor"/>
		</symbol>
		<symbol id="eye" width="100%" height="100%" viewBox="0 0 24 24">
			<path fill-rule="evenodd" clip-rule="evenodd" d="M20.7703 12C20.7703 11.6412 20.5762 11.4056 20.188 10.9343C18.768 9.21014 15.6357 6 12 6C8.36428 6 5.23207 9.21014 3.81198 10.9343C3.42382 11.4056 3.22974 11.6412 3.22974 12C3.22974 12.3588 3.42382 12.5944 3.81198 13.0657C5.23207 14.7899 8.36428 18 12 18C15.6357 18 18.768 14.7899 20.188 13.0657C20.5762 12.5944 20.7703 12.3588 20.7703 12ZM12 15C13.6569 15 15 13.6569 15 12C15 10.3431 13.6569 9 12 9C10.3432 9 9.00002 10.3431 9.00002 12C9.00002 13.6569 10.3432 15 12 15Z" fill="currentColor" />
		</symbol>
		<symbol id="eye-hiden" width="100%" height="100%" viewBox="0 0 24 24">
			<path fill-rule="evenodd" clip-rule="evenodd" d="M18.2371 15.1157C19.0484 14.3833 19.7137 13.6416 20.188 13.0657C20.5762 12.5944 20.7703 12.3588 20.7703 12C20.7703 11.6412 20.5762 11.4056 20.188 10.9343C18.768 9.21014 15.6357 6 12 6C11.1605 6 10.3479 6.17115 9.57695 6.45563L12.1238 9.00251C13.6822 9.06577 14.9342 10.3178 14.9975 11.8762L18.2371 15.1157ZM9.39308 10.5144C9.14295 10.9524 9.00001 11.4595 9.00001 12C9.00001 13.6569 10.3432 15 12 15C12.5405 15 13.0476 14.8571 13.4856 14.6069L15.7872 16.9085C14.636 17.5555 13.3529 18 12 18C8.36428 18 5.23207 14.7899 3.81198 13.0657C3.42382 12.5944 3.22974 12.3588 3.22974 12C3.22974 11.6412 3.42382 11.4056 3.81198 10.9343C4.48541 10.1167 5.54385 8.96489 6.85842 7.97974L9.39308 10.5144Z" fill="currentColor" />
			<path d="M5 2L21 18" fill="none" stroke="currentColor" stroke-width="2" />
		</symbol>
		<symbol id="phone" width="100%" height="100%" viewBox="0 0 32 32">
			<path d="M8.90616 4.42725L9.72386 3.60956C10.2446 3.08886 11.0888 3.08886 11.6095 3.60956L15.0572 7.05727C15.5779 7.57797 15.5779 8.42219 15.0572 8.94289L12.6673 11.3328C12.2688 11.7313 12.17 12.3401 12.422 12.8442C13.8791 15.7582 16.2419 18.121 19.1559 19.578C19.66 19.8301 20.2688 19.7313 20.6673 19.3328L23.0572 16.9429C23.5779 16.4222 24.4221 16.4222 24.9428 16.9429L28.3905 20.3906C28.9112 20.9113 28.9112 21.7555 28.3905 22.2762L27.5728 23.0939C24.7577 25.9091 20.3009 26.2258 17.116 23.8371L15.5048 22.6287C13.1801 20.8851 11.115 18.82 9.37143 16.4953L8.16302 14.8841C5.7743 11.6991 6.09103 7.24239 8.90616 4.42725Z" fill="currentColor"/>
		</symbol>
		<symbol id="menu" width="100%" height="100%" viewBox="0 0 20 18">
			<path fill-rule="evenodd" clip-rule="evenodd" d="M0.199951 2.0001C0.199951 1.2269 0.826752 0.600098 1.59995 0.600098H18.4C19.1732 0.600098 19.8 1.2269 19.8 2.0001C19.8 2.7733 19.1732 3.4001 18.4 3.4001H1.59995C0.826752 3.4001 0.199951 2.7733 0.199951 2.0001Z" fill="currentColor" />
			<path fill-rule="evenodd" clip-rule="evenodd" d="M0.199951 9.0001C0.199951 8.2269 0.826752 7.6001 1.59995 7.6001H18.4C19.1732 7.6001 19.8 8.2269 19.8 9.0001C19.8 9.7733 19.1732 10.4001 18.4 10.4001H1.59995C0.826752 10.4001 0.199951 9.7733 0.199951 9.0001Z" fill="currentColor" />
			<path fill-rule="evenodd" clip-rule="evenodd" d="M0.199951 16.0001C0.199951 15.2269 0.826752 14.6001 1.59995 14.6001H18.4C19.1732 14.6001 19.8 15.2269 19.8 16.0001C19.8 16.7733 19.1732 17.4001 18.4 17.4001H1.59995C0.826752 17.4001 0.199951 16.7733 0.199951 16.0001Z" fill="currentColor" />
		</symbol>
		<symbol id="arrow-right" width="100%" height="100%" viewBox="0 0 15 10">
			<path d="M13 5L13.7071 4.29289L14.4142 5L13.7071 5.70711L13 5ZM1 6C0.447715 6 0 5.55228 0 5C0 4.44772 0.447715 4 1 4V6ZM9.70711 0.292893L13.7071 4.29289L12.2929 5.70711L8.29289 1.70711L9.70711 0.292893ZM13.7071 5.70711L9.70711 9.70711L8.29289 8.29289L12.2929 4.29289L13.7071 5.70711ZM13 6H1V4H13V6Z" fill="currentColor" />
		</symbol>
		<symbol id="arrow-left" width="100%" height="100%" viewBox="0 0 15 10">
			<path d="M2 5L1.29289 4.29289L0.585786 5L1.29289 5.70711L2 5ZM14 6C14.5523 6 15 5.55228 15 5C15 4.44772 14.5523 4 14 4V6ZM5.29289 0.292893L1.29289 4.29289L2.70711 5.70711L6.70711 1.70711L5.29289 0.292893ZM1.29289 5.70711L5.29289 9.70711L6.70711 8.29289L2.70711 4.29289L1.29289 5.70711ZM2 6H14V4H2V6Z" fill="currentColor" />
		</symbol>
		<symbol id="arrows" width="100%" height="100%" viewBox="0 0 21 23">
			<path fill-rule="evenodd" clip-rule="evenodd" d="M14.2797 11.0556C14.3582 10.9769 14.4514 10.9145 14.554 10.8719C14.6566 10.8294 14.7667 10.8074 14.8778 10.8074C14.9889 10.8074 15.0989 10.8294 15.2016 10.8719C15.3042 10.9145 15.3974 10.9769 15.4759 11.0556L20.5446 16.1243C20.6232 16.2028 20.6857 16.296 20.7282 16.3986C20.7708 16.5013 20.7928 16.6113 20.7928 16.7224C20.7928 16.8335 20.7708 16.9435 20.7282 17.0462C20.6857 17.1488 20.6232 17.242 20.5446 17.3205L15.4759 22.3892C15.3173 22.5478 15.1021 22.6369 14.8778 22.6369C14.6535 22.6369 14.4383 22.5478 14.2797 22.3892C14.1211 22.2306 14.0319 22.0154 14.0319 21.7911C14.0319 21.5668 14.1211 21.3516 14.2797 21.193L18.7519 16.7224L14.2797 12.2518C14.201 12.1734 14.1386 12.0801 14.096 11.9775C14.0534 11.8749 14.0315 11.7648 14.0315 11.6537C14.0315 11.5426 14.0534 11.4326 14.096 11.3299C14.1386 11.2273 14.201 11.1341 14.2797 11.0556Z" fill="currentColor"/>
			<path fill-rule="evenodd" clip-rule="evenodd" d="M0.516525 16.7225C0.516525 16.4984 0.605528 16.2835 0.763955 16.1251C0.922382 15.9667 1.13726 15.8777 1.36131 15.8777H19.1017C19.3257 15.8777 19.5406 15.9667 19.699 16.1251C19.8575 16.2835 19.9465 16.4984 19.9465 16.7225C19.9465 16.9465 19.8575 17.1614 19.699 17.3198C19.5406 17.4782 19.3257 17.5673 19.1017 17.5673H1.36131C1.13726 17.5673 0.922382 17.4782 0.763955 17.3198C0.605528 17.1614 0.516525 16.9465 0.516525 16.7225ZM7.02809 0.918322C7.10676 0.996794 7.16918 1.09002 7.21177 1.19265C7.25436 1.29528 7.27628 1.40531 7.27628 1.51643C7.27628 1.62754 7.25436 1.73757 7.21177 1.8402C7.16918 1.94284 7.10676 2.03606 7.02809 2.11453L2.55582 6.58511L7.02809 11.0557C7.10664 11.1342 7.16894 11.2275 7.21145 11.3301C7.25396 11.4327 7.27584 11.5427 7.27584 11.6538C7.27584 11.7649 7.25396 11.8749 7.21145 11.9775C7.16894 12.0801 7.10664 12.1734 7.02809 12.2519C6.94955 12.3304 6.8563 12.3927 6.75368 12.4353C6.65106 12.4778 6.54106 12.4996 6.42999 12.4996C6.31891 12.4996 6.20892 12.4778 6.10629 12.4353C6.00367 12.3927 5.91043 12.3304 5.83188 12.2519L0.763201 7.18321C0.684529 7.10474 0.622112 7.01152 0.579524 6.90888C0.536936 6.80625 0.515015 6.69623 0.515015 6.58511C0.515015 6.47399 0.536936 6.36396 0.579524 6.26133C0.622112 6.1587 0.684529 6.06548 0.763201 5.987L5.83188 0.918322C5.91036 0.83965 6.00358 0.777233 6.10621 0.734645C6.20884 0.692057 6.31887 0.670135 6.42999 0.670135C6.5411 0.670135 6.65113 0.692057 6.75376 0.734645C6.8564 0.777233 6.94962 0.83965 7.02809 0.918322Z" fill="currentColor"/>
			<path fill-rule="evenodd" clip-rule="evenodd" d="M1.36133 6.58518C1.36133 6.36113 1.45033 6.14626 1.60876 5.98783C1.76719 5.82941 1.98206 5.7404 2.20611 5.7404H19.9465C20.1705 5.7404 20.3854 5.82941 20.5438 5.98783C20.7023 6.14626 20.7913 6.36113 20.7913 6.58518C20.7913 6.80923 20.7023 7.02411 20.5438 7.18253C20.3854 7.34096 20.1705 7.42996 19.9465 7.42996H2.20611C1.98206 7.42996 1.76719 7.34096 1.60876 7.18253C1.45033 7.02411 1.36133 6.80923 1.36133 6.58518Z" fill="currentColor"/>
		</symbol>
		<symbol id="gal-ochka" width="100%" height="100%" viewBox="0 0 12 10">
			<path d="M6.23497 8.79946C5.9649 9.16602 5.54433 9.3913 5.0896 9.41369C4.63487 9.43632 4.19445 9.25304 3.88975 8.91464L1.15929 5.88456C0.725328 5.40328 0.763876 4.6614 1.24515 4.22744C1.72689 3.79348 2.46831 3.83226 2.90227 4.31377L4.83407 6.45771C4.8627 6.48956 4.90425 6.50664 4.94695 6.50456C4.98988 6.50249 5.02912 6.48102 5.05475 6.44686L9.02546 1.0614C9.40979 0.539728 10.1443 0.428699 10.6662 0.813259C11.1876 1.19782 11.2984 1.93232 10.9139 2.45376L6.23497 8.79946Z" fill="currentColor" />
		</symbol>
		<symbol id="to-right" width="100%" height="100%" viewBox="0 0 8 14">
			<path d="M5.63663 7.00019L1.15148 2.51504C0.7935 2.15706 0.7935 1.57666 1.15148 1.21868C1.50946 0.8607 2.08986 0.8607 2.44784 1.21868L7.58118 6.35201C7.93916 6.70999 7.93916 7.29039 7.58118 7.64838L2.44784 12.7817C2.08986 13.1397 1.50946 13.1397 1.15148 12.7817C0.7935 12.4237 0.7935 11.8433 1.15148 11.4853L5.63663 7.00019Z" fill="currentColor" />
		</symbol>
		<symbol id="to-left" width="100%" height="100%" viewBox="0 0 8 14">
			<path d="M2.36337 7.00019L6.84852 2.51504C7.2065 2.15706 7.2065 1.57666 6.84852 1.21868C6.49054 0.8607 5.91014 0.8607 5.55216 1.21868L0.418823 6.35201C0.0608425 6.70999 0.0608425 7.29039 0.418823 7.64838L5.55216 12.7817C5.91014 13.1397 6.49054 13.1397 6.84852 12.7817C7.2065 12.4237 7.2065 11.8433 6.84852 11.4853L2.36337 7.00019Z" fill="currentColor" />
		</symbol>
		<symbol id="play" width="100%" height="100%" viewBox="0 0 32 38">
			<path d="M5.27275 38C4.93519 38 4.61146 37.8332 4.37278 37.5363C4.13409 37.2393 4 36.8366 4 36.4167V1.58307C4.00004 1.30794 4.05771 1.03756 4.16732 0.79859C4.27694 0.559623 4.43472 0.360315 4.62511 0.220312C4.81551 0.0803081 5.03194 0.00444103 5.25308 0.000189119C5.47422 -0.00406279 5.69243 0.0634472 5.88621 0.196064L31.3411 17.6129C31.5407 17.7495 31.7071 17.9503 31.823 18.1943C31.9389 18.4383 32 18.7165 32 18.9999C32 19.2833 31.9389 19.5615 31.823 19.8054C31.7071 20.0494 31.5407 20.2502 31.3411 20.3869L5.88621 37.8037C5.69829 37.9324 5.48727 37.9999 5.27275 38Z" fill="currentColor" />
		</symbol>
		<symbol id="cross" width="100%" height="100%" viewBox="0 0 16 16">
			<path d="M1 15L15 1M1 1L15 15" fill="none" stroke="currentColor" stroke-width="2" stroke-linecap="round" stroke-linejoin="round" />
		</symbol>
		<symbol id="subtrack" width="100%" height="100%" viewBox="0 0 36 41">
			<path fill-rule="evenodd" clip-rule="evenodd" d="M33.9849 6.35005L20.9545 0.765592C19.0679 -0.0429574 16.9323 -0.0429581 15.0457 0.765592L2.01532 6.35005C1.09612 6.744 0.500122 7.64784 0.500122 8.64791V21.7802C0.500122 26.6244 2.83961 31.1705 6.78155 33.9862L15.0939 39.9236C16.8324 41.1653 19.1678 41.1653 20.9063 39.9236L29.2187 33.9862C33.1606 31.1705 35.5001 26.6244 35.5001 21.7802V8.64791C35.5001 7.64784 34.9041 6.744 33.9849 6.35005ZM27.4523 16.0617C28.3148 14.9836 28.14 13.4104 27.0619 12.5478C25.9837 11.6853 24.4105 11.8601 23.5479 12.9383L15.2928 23.2572L12.2679 20.2322C11.2916 19.2559 9.70867 19.2559 8.73236 20.2322C7.75605 21.2085 7.75605 22.7915 8.73236 23.7678L12.7448 27.7802C14.3252 29.3607 16.9285 29.2165 18.3247 27.4712L27.4523 16.0617Z" fill="currentColor"/>
		</symbol>
		<symbol id="fair" width="100%" height="100%" viewBox="0 0 36 40">
			<path fill-rule="evenodd" clip-rule="evenodd" d="M22.3919 0.0837632C23.085 0.267814 23.6656 0.740605 23.9863 1.38198C25.1952 3.79979 26.0974 5.26721 27.0052 6.457C27.924 7.66132 28.8959 8.64723 30.3744 10.1257C33.791 13.5423 35.5 18.0253 35.5 22.5001C35.5 26.9749 33.791 31.4578 30.3744 34.8744C23.5402 41.7086 12.4598 41.7086 5.62563 34.8744C2.20904 31.4578 0.500006 26.9749 0.5 22.5001C0.499993 18.0253 2.20903 13.5423 5.62563 10.1257C6.34063 9.4107 7.41592 9.19681 8.35011 9.58377C9.28429 9.97072 9.8934 10.8823 9.8934 11.8935C9.8934 14.693 10.0682 16.8261 10.887 18.5276C11.3373 19.4632 12.0396 20.3779 13.2501 21.1941C13.5392 18.5422 14.0688 15.3112 14.7844 12.2444C15.3478 9.82988 16.0485 7.41933 16.8825 5.40915C17.2996 4.40371 17.7714 3.44635 18.3071 2.61977C18.8286 1.81519 19.4986 0.99645 20.3635 0.419887C20.9601 0.0221238 21.6988 -0.100288 22.3919 0.0837632ZM23.3033 32.8033C20.3744 35.7322 15.6256 35.7322 12.6967 32.8033C11.2322 31.3388 10.5 29.4194 10.5 27.5C10.5 27.5 12.6967 28.75 16.7501 28.75C16.7501 26.25 18.0001 18.75 19.8751 17.5C21.1251 20 21.8388 20.7323 23.3033 22.1967C24.7678 23.6612 25.5 25.5806 25.5 27.5C25.5 29.4194 24.7678 31.3388 23.3033 32.8033Z" fill="currentColor"/>
		</symbol>
		<symbol id="car" width="100%" height="100%" viewBox="0 0 40 35">
			<path d="M14.9999 31.25C14.9999 33.3211 13.3209 35 11.2499 35C9.17881 35 7.49988 33.3211 7.49988 31.25C7.49988 29.1789 9.17881 27.5 11.2499 27.5C13.3209 27.5 14.9999 29.1789 14.9999 31.25Z" fill="currentColor"/>
			<path d="M32.4999 31.25C32.4999 33.3211 30.8209 35 28.7499 35C26.6788 35 24.9999 33.3211 24.9999 31.25C24.9999 29.1789 26.6788 27.5 28.7499 27.5C30.8209 27.5 32.4999 29.1789 32.4999 31.25Z" fill="currentColor"/>
			<path d="M2.49988 0C1.11917 0 -0.00012207 1.11929 -0.00012207 2.5V27.5C-0.00012207 28.8807 1.11917 30 2.49988 30H5.1249C5.70399 27.1472 8.22618 25 11.2499 25C14.2736 25 16.7958 27.1472 17.3749 30H19.9999C21.3806 30 22.4999 28.8807 22.4999 27.5V2.5C22.4999 1.11929 21.3806 0 19.9999 0H2.49988Z" fill="currentColor"/>
			<path d="M29.9999 7.5C28.6192 7.5 27.4999 8.61929 27.4999 10V25.125C27.9038 25.043 28.3218 25 28.7499 25C31.7736 25 34.2958 27.1472 34.8749 30H37.4999C38.8806 30 39.9999 28.8807 39.9999 27.5V15C39.9999 14.337 39.7365 13.7011 39.2676 13.2322L34.2676 8.23223C33.7988 7.76339 33.1629 7.5 32.4999 7.5H29.9999Z" fill="currentColor"/>
		</symbol>
		<symbol id="ok" width="100%" height="100%" viewBox="0 0 12 21">
			<path d="M6.02494 10.6764C8.96574 10.6764 11.3631 8.27898 11.3631 5.33818C11.3631 2.39738 8.96574 0 6.02494 0C3.05219 0 0.654785 2.39738 0.654785 5.33818C0.654785 8.27898 3.05219 10.6764 6.02494 10.6764ZM6.02494 3.13258C7.23962 3.13258 8.23054 4.12351 8.23054 5.33818C8.23054 6.55286 7.23962 7.54378 6.02494 7.54378C4.81026 7.54378 3.81934 6.55286 3.81934 5.33818C3.78739 4.12351 4.77829 3.13258 6.02494 3.13258Z" fill="currentColor"/>
			<path d="M8.16653 15.0562C9.25336 14.8005 10.3082 14.3849 11.2673 13.7776C12.0023 13.3301 12.226 12.3392 11.7467 11.604C11.2992 10.8688 10.3082 10.645 9.57301 11.1245C7.39938 12.499 4.55448 12.499 2.38083 11.1245C1.64563 10.677 0.686677 10.8688 0.207201 11.604C-0.208349 12.3392 0.0154015 13.2981 0.750602 13.7456C1.70958 14.353 2.76443 14.7685 3.85123 15.0243L0.878476 17.9971C0.271127 18.6044 0.271127 19.5953 0.878476 20.2027C1.19813 20.5222 1.5817 20.6501 1.99725 20.6501C2.4128 20.6501 2.79638 20.4902 3.11603 20.2027L6.05683 17.2618L8.99763 20.2027C9.60498 20.81 10.5959 20.81 11.2032 20.2027C11.8105 19.5953 11.8105 18.6044 11.2032 17.9971L8.16653 15.0562Z" fill="currentColor"/>
		</symbol>
		<symbol id="tg" width="100%" height="100%" viewBox="0 0 17 15">
			<path fill-rule="evenodd" clip-rule="evenodd" d="M1.16397 6.34497C5.72643 4.27536 8.76373 2.90017 10.2889 2.23299C14.6298 0.340395 15.5422 0.0136158 16.1289 0C16.2592 0 16.546 0.0272318 16.7415 0.190621C16.898 0.32678 16.9371 0.503785 16.9631 0.639944C16.9892 0.776102 17.0153 1.06203 16.9892 1.27989C16.7546 3.86689 15.7378 10.1438 15.2164 13.0303C14.9948 14.2557 14.5646 14.6642 14.1474 14.7051C13.2349 14.7868 12.5441 14.0787 11.6707 13.4796C10.2889 12.5402 9.5198 11.9547 8.17713 11.0288C6.62589 9.96677 7.62963 9.38129 8.51605 8.42819C8.75069 8.1831 12.7526 4.37067 12.8308 4.03028C12.8439 3.98943 12.8439 3.82604 12.7526 3.74435C12.6614 3.66265 12.531 3.68988 12.4267 3.71712C12.2833 3.74435 10.0934 5.26932 5.83072 8.27841C5.20501 8.72773 4.64448 8.94559 4.13609 8.93197C3.57556 8.91835 2.50664 8.60519 1.69843 8.33287C0.720757 8.00609 -0.0613799 7.82909 0.0037982 7.25723C0.042905 6.95768 0.433973 6.65813 1.16397 6.34497Z" fill="currentColor"/>
		</symbol>
		<symbol id="vk" width="100%" height="100%" viewBox="0 0 20 13">
			<path d="M10.8931 12.4797C4.0599 12.4797 0.162399 7.79513 0 0H3.42286C3.53529 5.72142 6.05865 8.14491 8.0574 8.6446V0H11.2805V4.93442C13.2543 4.72205 15.3277 2.47345 16.0273 0H19.2503C18.7132 3.04809 16.4646 5.29669 14.8656 6.22111C16.4646 6.97064 19.0256 8.93192 20 12.4797H16.4521C15.6901 10.1062 13.7914 8.26983 11.2805 8.01999V12.4797H10.8931Z" fill="currentColor"/>
		</symbol>
		<symbol id="inst" width="100%" height="100%" viewBox="0 0 18 18">
			<rect width="18" height="18" rx="4.5" fill="currentColor"/>
			<path d="M8.9999 14.0999C7.99122 14.0999 7.00519 13.8008 6.1665 13.2404C5.32781 12.68 4.67413 11.8835 4.28812 10.9516C3.90211 10.0197 3.80112 8.99425 3.9979 8.00494C4.19468 7.01564 4.68041 6.10691 5.39366 5.39366C6.10691 4.68041 7.01564 4.19468 8.00494 3.9979C8.99425 3.80112 10.0197 3.90211 10.9516 4.28812C11.8835 4.67413 12.68 5.32781 13.2404 6.1665C13.8008 7.00519 14.0999 7.99122 14.0999 8.9999C14.0989 10.3522 13.5613 11.6488 12.6051 12.6051C11.6488 13.5613 10.3522 14.0989 8.9999 14.0999ZM8.9999 5.69991C8.34723 5.69991 7.70921 5.89345 7.16652 6.25606C6.62384 6.61866 6.20087 7.13405 5.9511 7.73705C5.70133 8.34005 5.63598 9.00356 5.76331 9.6437C5.89064 10.2838 6.20494 10.8718 6.66645 11.3334C7.12797 11.7949 7.71597 12.1092 8.35611 12.2365C8.99624 12.3638 9.65976 12.2985 10.2628 12.0487C10.8658 11.7989 11.3811 11.376 11.7438 10.8333C12.1064 10.2906 12.2999 9.65258 12.2999 8.9999C12.2989 8.12499 11.9509 7.2862 11.3323 6.66755C10.7136 6.04889 9.87481 5.7009 8.9999 5.69991Z" fill="#013D2B"/>
			<path d="M14.1 5.10005C14.597 5.10005 15 4.69711 15 4.20005C15 3.70299 14.597 3.30005 14.1 3.30005C13.6029 3.30005 13.2 3.70299 13.2 4.20005C13.2 4.69711 13.6029 5.10005 14.1 5.10005Z" fill="#013D2B"/>
		</symbol>
		<symbol id="box" width="100%" height="100%" viewBox="0 0 80 80">
			<path d="M13.3334 24.714C13.3334 24.0327 13.3334 23.6921 13.4602 23.3858C13.5871 23.0795 13.828 22.8387 14.3097 22.357L19.4281 17.2385C21.355 15.3117 22.3184 14.3482 23.5436 13.8408C24.7687 13.3333 26.1312 13.3333 28.8562 13.3333H51.1439C53.8689 13.3333 55.2314 13.3333 56.4565 13.8408C57.6816 14.3482 58.6451 15.3117 60.572 17.2385L65.6904 22.357C66.1721 22.8387 66.413 23.0795 66.5398 23.3858C66.6667 23.6921 66.6667 24.0327 66.6667 24.714V26.6666H13.3334V24.714Z" fill="rgba(0, 0, 0, 0)" stroke="currentColor" stroke-width="6.66667"/>
			<path fill-rule="evenodd" clip-rule="evenodd" d="M70 26.6666H10V56.6666C10 62.952 10 66.0947 11.9526 68.0473C13.9052 70 17.0479 70 23.3333 70H56.6667C62.9521 70 66.0948 70 68.0474 68.0473C70 66.0947 70 62.952 70 56.6666V26.6666ZM33.3333 36.6666C33.3333 34.8256 31.841 33.3333 30 33.3333C28.1591 33.3333 26.6667 34.8256 26.6667 36.6666C26.6667 40.2028 28.0714 43.5942 30.5719 46.0947C33.0724 48.5952 36.4638 49.9999 40 49.9999C43.5362 49.9999 46.9276 48.5952 49.4281 46.0947C51.9286 43.5942 53.3333 40.2028 53.3333 36.6666C53.3333 34.8256 51.841 33.3333 50 33.3333C48.159 33.3333 46.6667 34.8256 46.6667 36.6666C46.6667 38.4347 45.9643 40.1304 44.714 41.3806C43.4638 42.6309 41.7681 43.3333 40 43.3333C38.2319 43.3333 36.5362 42.6309 35.286 41.3806C34.0357 40.1304 33.3333 38.4347 33.3333 36.6666Z" fill="currentColor"/>
		</symbol>
		<symbol id="geo" width="100%" height="100%" viewBox="0 0 80 80">
			<path fill-rule="evenodd" clip-rule="evenodd" d="M41.3268 59.3465C46.2699 56.7826 63.3333 46.7211 63.3333 30C63.3333 17.1133 52.8866 6.66666 40 6.66666C27.1133 6.66666 16.6666 17.1133 16.6666 30C16.6666 46.7211 33.7301 56.7826 38.6732 59.3465C39.516 59.7837 40.4839 59.7837 41.3268 59.3465ZM40 40C45.5228 40 50 35.5229 50 30C50 24.4772 45.5228 20 40 20C34.4771 20 30 24.4772 30 30C30 35.5229 34.4771 40 40 40Z" fill="currentColor"/>
			<path d="M60.2072 55C62.2551 56.5202 63.3333 58.2446 63.3333 60C63.3333 61.7554 62.2551 63.4798 60.2072 65C58.1593 66.5202 55.2137 67.7826 51.6666 68.6603C48.1195 69.5379 44.0958 70 40 70C35.9041 70 31.8804 69.5379 28.3333 68.6603C24.7862 67.7826 21.8406 66.5202 19.7927 65C17.7448 63.4798 16.6666 61.7554 16.6666 60C16.6666 58.2446 17.7448 56.5202 19.7927 55" fill="rgba(0, 0, 0, 0)" stroke="currentColor" stroke-width="6.66667" stroke-linecap="round"/>
		</symbol>
		<symbol id="house" width="100%" height="100%" viewBox="0 0 80 80">
			<path fill-rule="evenodd" clip-rule="evenodd" d="M19.7792 37.9732C18.75 40.2109 18.75 42.7567 18.75 47.8483V63.7498C18.75 70.8208 18.75 74.3564 20.9467 76.5531C22.94 78.5464 26.0357 78.7309 31.875 78.748V60C31.875 55.8579 35.2329 52.5 39.375 52.5H50.625C54.7672 52.5 58.125 55.8579 58.125 60V78.748C63.9643 78.7309 67.06 78.5464 69.0533 76.5531C71.25 74.3564 71.25 70.8208 71.25 63.7498V47.8483C71.25 42.7567 71.25 40.2109 70.2208 37.9732C69.1915 35.7354 67.2586 34.0786 63.3928 30.765L59.6428 27.5507C52.6554 21.5615 49.1616 18.5669 45 18.5669C40.8384 18.5669 37.3446 21.5615 30.3572 27.5507L26.6072 30.765L26.6072 30.765C22.7414 34.0786 20.8085 35.7354 19.7792 37.9732ZM50.625 78.7498V60H39.375V78.7498H50.625Z" fill="currentColor"/>
		</symbol>
		<symbol id="user" width="100%" height="100%" viewBox="0 0 30 30">
			<path d="M24.5644 25.5067C25.2554 25.3627 25.667 24.6396 25.3236 24.0229C24.5666 22.6633 23.3741 21.4686 21.8485 20.5582C19.8838 19.3856 17.4765 18.75 15 18.75C12.5235 18.75 10.1162 19.3856 8.1514 20.5582C6.62586 21.4686 5.43333 22.6633 4.67635 24.0229C4.33298 24.6396 4.74452 25.3627 5.43554 25.5067C11.7441 26.8215 18.2559 26.8215 24.5644 25.5067Z" fill="currentColor"/>
			<circle cx="15" cy="10" r="6.25" fill="currentColor"/>
		</symbol>
	</defs>
</svg>