<svg width="44" height="44" viewBox="0 0 44 44" fill="none" xmlns="http://www.w3.org/2000/svg">
<rect width="44" height="44" rx="9.77778" fill="url(#paint0_radial_171_576)"/>
<path d="M29.6388 37.2777H14.3611C12.3351 37.2777 10.3921 36.4729 8.95955 35.0403C7.52698 33.6078 6.72217 31.6648 6.72217 29.6388V14.3611C6.72217 12.3351 7.52698 10.3921 8.95955 8.95955C10.3921 7.52698 12.3351 6.72217 14.3611 6.72217H29.6388C31.6648 6.72217 33.6078 7.52698 35.0403 8.95955C36.4729 10.3921 37.2777 12.3351 37.2777 14.3611V29.6388C37.2777 31.6648 36.4729 33.6078 35.0403 35.0403C33.6078 36.4729 31.6648 37.2777 29.6388 37.2777ZM14.3611 9.77772C13.146 9.77941 11.9812 10.2628 11.122 11.122C10.2628 11.9812 9.77941 13.146 9.77772 14.3611V29.6388C9.77941 30.8539 10.2628 32.0187 11.122 32.8779C11.9812 33.7371 13.146 34.2205 14.3611 34.2222H29.6388C30.8539 34.2205 32.0187 33.7371 32.8779 32.8779C33.7371 32.0187 34.2205 30.8539 34.2222 29.6388V14.3611C34.2205 13.146 33.7371 11.9812 32.8779 11.122C32.0187 10.2628 30.8539 9.77941 29.6388 9.77772H14.3611Z" fill="white"/>
<path d="M22.0001 30.6573C20.2878 30.6573 18.614 30.1496 17.1903 29.1983C15.7666 28.247 14.6569 26.8949 14.0017 25.313C13.3464 23.7311 13.175 21.9903 13.509 20.311C13.8431 18.6316 14.6676 17.089 15.8784 15.8782C17.0891 14.6675 18.6317 13.8429 20.3111 13.5089C21.9905 13.1748 23.7312 13.3463 25.3131 14.0015C26.895 14.6568 28.2471 15.7664 29.1984 17.1901C30.1497 18.6138 30.6575 20.2877 30.6575 21.9999C30.6558 24.2955 29.7431 26.4966 28.1199 28.1198C26.4967 29.743 24.2956 30.6557 22.0001 30.6573ZM22.0001 16.3981C20.8921 16.3981 19.8091 16.7266 18.8878 17.3422C17.9666 17.9577 17.2486 18.8326 16.8246 19.8562C16.4006 20.8798 16.2897 22.0062 16.5058 23.0928C16.722 24.1795 17.2555 25.1776 18.039 25.961C18.8224 26.7445 19.8205 27.278 20.9072 27.4942C21.9938 27.7103 23.1202 27.5994 24.1438 27.1754C25.1674 26.7514 26.0423 26.0334 26.6578 25.1122C27.2734 24.1909 27.6019 23.1079 27.6019 21.9999C27.6002 20.5148 27.0095 19.0909 25.9593 18.0407C24.9091 16.9905 23.4852 16.3998 22.0001 16.3981Z" fill="white"/>
<path d="M30.6574 15.3795C31.5012 15.3795 32.1852 14.6955 32.1852 13.8518C32.1852 13.008 31.5012 12.324 30.6574 12.324C29.8136 12.324 29.1296 13.008 29.1296 13.8518C29.1296 14.6955 29.8136 15.3795 30.6574 15.3795Z" fill="white"/>
<defs>
<radialGradient id="paint0_radial_171_576" cx="0" cy="0" r="1" gradientUnits="userSpaceOnUse" gradientTransform="translate(44.8852 0.893751) scale(101.609)">
<stop stop-color="#F9ED32"/>
<stop offset="0.36" stop-color="#EE2A7B"/>
<stop offset="0.44" stop-color="#D22A8A"/>
<stop offset="0.6" stop-color="#8B2AB2"/>
<stop offset="0.83" stop-color="#1B2AF0"/>
<stop offset="0.88" stop-color="#002AFF"/>
</radialGradient>
</defs>
</svg>
