<svg width="44" height="44" viewBox="0 0 44 44" fill="none" xmlns="http://www.w3.org/2000/svg">
<g clip-path="url(#clip0_171_556)">
<path d="M22.0426 22.4338C25.7128 22.4338 28.7048 19.4418 28.7048 15.7716C28.7048 12.1014 25.7128 9.10938 22.0426 9.10938C18.3325 9.10938 15.3405 12.1014 15.3405 15.7716C15.3405 19.4418 18.3325 22.4338 22.0426 22.4338ZM22.0426 13.0189C23.5585 13.0189 24.7952 14.2556 24.7952 15.7716C24.7952 17.2875 23.5585 18.5242 22.0426 18.5242C20.5266 18.5242 19.2899 17.2875 19.2899 15.7716C19.25 14.2556 20.4867 13.0189 22.0426 13.0189Z" fill="white"/>
<path d="M24.7155 27.8994C26.0719 27.5802 27.3884 27.0616 28.5851 26.3037C29.5027 25.7451 29.7819 24.5085 29.1836 23.5909C28.6252 22.6734 27.3884 22.3941 26.4708 22.9925C23.7581 24.7079 20.2075 24.7079 17.4948 22.9925C16.5772 22.434 15.3804 22.6734 14.782 23.5909C14.2634 24.5085 14.5427 25.7053 15.4602 26.2638C16.657 27.0217 17.9735 27.5404 19.3299 27.8596L15.6198 31.5697C14.8618 32.3277 14.8618 33.5644 15.6198 34.3223C16.0187 34.7211 16.4974 34.8808 17.0161 34.8808C17.5347 34.8808 18.0134 34.6813 18.4123 34.3223L22.0825 30.6521L25.7528 34.3223C26.5107 35.0803 27.7474 35.0803 28.5054 34.3223C29.2633 33.5644 29.2633 32.3277 28.5054 31.5697L24.7155 27.8994Z" fill="white"/>
<rect width="44" height="44" rx="10" fill="#FF8800"/>
<path d="M22.0426 22.4338C25.7128 22.4338 28.7048 19.4418 28.7048 15.7716C28.7048 12.1014 25.7128 9.10938 22.0426 9.10938C18.3325 9.10938 15.3405 12.1014 15.3405 15.7716C15.3405 19.4418 18.3325 22.4338 22.0426 22.4338ZM22.0426 13.0189C23.5585 13.0189 24.7952 14.2556 24.7952 15.7716C24.7952 17.2875 23.5585 18.5242 22.0426 18.5242C20.5266 18.5242 19.2899 17.2875 19.2899 15.7716C19.25 14.2556 20.4867 13.0189 22.0426 13.0189Z" fill="white"/>
<path d="M24.7155 27.8994C26.0719 27.5802 27.3884 27.0616 28.5853 26.3037C29.5027 25.7451 29.7819 24.5085 29.1836 23.5909C28.6252 22.6734 27.3884 22.3941 26.4708 22.9925C23.7581 24.7079 20.2076 24.7079 17.4948 22.9925C16.5772 22.434 15.3804 22.6734 14.782 23.5909C14.2634 24.5085 14.5427 25.7053 15.4602 26.2638C16.657 27.0217 17.9735 27.5404 19.3299 27.8596L15.6198 31.5697C14.8618 32.3277 14.8618 33.5644 15.6198 34.3223C16.0187 34.7211 16.4974 34.8808 17.0161 34.8808C17.5347 34.8808 18.0134 34.6813 18.4123 34.3223L22.0825 30.6521L25.7528 34.3223C26.5107 35.0803 27.7474 35.0803 28.5054 34.3223C29.2633 33.5644 29.2633 32.3277 28.5054 31.5697L24.7155 27.8994Z" fill="white"/>
</g>
<defs>
<clipPath id="clip0_171_556">
<rect width="44" height="44" fill="white"/>
</clipPath>
</defs>
</svg>
