<svg width="302" height="66" viewBox="0 0 302 66" fill="none" xmlns="http://www.w3.org/2000/svg">
<g clip-path="url(#clip0_706_300)">
<path fill-rule="evenodd" clip-rule="evenodd" d="M36.3047 0.180032C29.5153 -0.533995 22.6711 0.868972 16.7127 4.19609C10.7543 7.52321 5.97437 12.6112 3.02982 18.7606C0.0852629 24.91 -0.879332 31.819 0.268619 38.538C1.41657 45.2569 4.62071 51.456 9.44063 56.2831C14.2606 61.1102 20.4596 64.3284 27.1858 65.4952C33.912 66.6621 40.8351 65.7204 47.0034 62.7996C53.1718 59.8788 58.2827 55.1223 61.6336 49.1838C64.9844 43.2453 66.4108 36.4164 65.7167 29.6357C64.9528 22.0986 61.6109 15.0544 56.2538 9.68933C50.8967 4.32426 43.8516 0.966 36.3047 0.180032ZM35.2339 50.4498C31.5824 50.9388 27.8691 50.2733 24.616 48.5466C21.3629 46.8199 18.7336 44.1188 17.0974 40.8231C15.4613 37.5274 14.9006 33.8026 15.4943 30.1724C16.0879 26.5421 17.806 23.1888 20.4071 20.5837C23.0082 17.9787 26.3615 16.2529 29.9957 15.6488C33.6299 15.0448 37.3624 15.5929 40.6685 17.2161C43.9746 18.8393 46.6882 21.456 48.4279 24.6984C50.1675 27.9409 50.8458 31.6461 50.3673 35.2933C49.8653 39.1295 48.1105 42.6935 45.3747 45.4334C42.6389 48.1734 39.0747 49.9365 35.2339 50.4498ZM83.391 1.48523C82.2449 1.48797 81.1138 1.74577 80.0801 2.23989C79.0463 2.734 78.1359 3.452 77.4151 4.34162C76.6943 5.23125 76.1812 6.27012 75.9131 7.38266C75.645 8.49519 75.6288 9.6534 75.8655 10.773C76.5906 14.4001 79.9839 16.8785 83.6806 16.8785H105.133L71.7483 60.9873C71.5014 61.3129 71.3502 61.7008 71.3117 62.1074C71.2732 62.514 71.3489 62.9232 71.5303 63.2893C71.7117 63.6554 71.9917 63.9637 72.3388 64.1799C72.6859 64.396 73.0865 64.5113 73.4955 64.5129H125.862C129.556 64.5129 132.952 62.0352 133.677 58.4074C133.914 57.288 133.898 56.13 133.63 55.0175C133.362 53.9051 132.849 52.8663 132.129 51.9766C131.408 51.0869 130.498 50.3688 129.465 49.8743C128.432 49.3799 127.301 49.1217 126.155 49.1184H100.017L133.376 5.04384C133.625 4.71504 133.778 4.32339 133.817 3.91282C133.855 3.50225 133.779 3.08901 133.596 2.71946C133.412 2.34991 133.129 2.03867 132.779 1.82066C132.428 1.60265 132.024 1.4865 131.611 1.48523H83.391ZM292.645 1.66279C290.911 2.07438 289.37 3.06437 288.276 4.46908C287.183 5.87379 286.602 7.60909 286.63 9.38806V35.0173L245.034 1.9693C244.708 1.71079 244.316 1.54946 243.902 1.50388C243.488 1.4583 243.069 1.53032 242.694 1.71165C242.32 1.89298 242.004 2.17626 241.783 2.52889C241.562 2.88153 241.446 3.2892 241.447 3.705V56.6237C241.419 58.4027 241.999 60.1381 243.093 61.5428C244.187 62.9476 245.728 63.9375 247.462 64.349C248.588 64.5963 249.755 64.5882 250.877 64.3251C251.999 64.062 253.048 63.5508 253.946 62.8291C254.844 62.1074 255.568 61.1936 256.065 60.1552C256.562 59.1168 256.819 57.9802 256.818 56.8293V30.9783L298.414 64.0269C298.74 64.2853 299.132 64.4465 299.546 64.492C299.96 64.5376 300.378 64.4656 300.753 64.2843C301.128 64.1031 301.443 63.8199 301.664 63.4674C301.885 63.115 302.001 62.7075 302 62.2919V9.17997C302.001 8.02936 301.744 6.89315 301.247 5.8551C300.749 4.81705 300.025 3.90365 299.127 3.18223C298.23 2.46081 297.181 1.94977 296.059 1.6868C294.937 1.42383 293.77 1.41562 292.645 1.66279ZM184.341 15.405C201.935 15.405 215.081 24.6878 215.081 32.9913C215.081 41.2947 201.935 50.5775 184.341 50.5775C166.747 50.5775 153.601 41.2947 153.601 32.9913C153.601 24.6878 166.747 15.405 184.341 15.405ZM184.341 0.0124434C158.875 0.0124434 138.231 14.7777 138.231 32.9913C138.231 51.2048 158.875 65.9701 184.341 65.9701C209.807 65.9701 230.451 51.2048 230.451 32.9913C230.451 14.7777 209.807 0.0124434 184.341 0.0124434Z" fill="#0069FF"/>
</g>
<defs>
<clipPath id="clip0_706_300">
<rect width="302" height="66" fill="white"/>
</clipPath>
</defs>
</svg>
