<svg width="44" height="44" viewBox="0 0 44 44" fill="none" xmlns="http://www.w3.org/2000/svg">
<rect width="44" height="44" rx="10" fill="#33AADE"/>
<path fill-rule="evenodd" clip-rule="evenodd" d="M12.5722 20.6221C17.9609 18.1777 21.5482 16.5535 23.3495 15.7655C28.4764 13.5302 29.5542 13.1443 30.247 13.1282C30.4009 13.1282 30.7397 13.1603 30.9706 13.3533C31.1554 13.5141 31.2015 13.7232 31.2323 13.884C31.2631 14.0448 31.2939 14.3825 31.2631 14.6398C30.986 17.6953 29.7851 25.1088 29.1693 28.518C28.9075 29.9654 28.3994 30.4478 27.9068 30.496C26.829 30.5925 26.0131 29.7563 24.9815 29.0487C23.3495 27.9391 22.4412 27.2476 20.8554 26.1541C19.0232 24.8997 20.2087 24.2082 21.2557 23.0825C21.5328 22.7931 26.2594 18.2903 26.3518 17.8883C26.3672 17.84 26.3672 17.647 26.2594 17.5505C26.1516 17.4541 25.9977 17.4862 25.8745 17.5184C25.7051 17.5505 23.1186 19.3517 18.0841 22.9056C17.345 23.4363 16.683 23.6936 16.0826 23.6775C15.4205 23.6615 14.158 23.2916 13.2035 22.97C12.0488 22.584 11.125 22.375 11.202 21.6995C11.2482 21.3458 11.7101 20.992 12.5722 20.6221Z" fill="white"/>
</svg>
