<svg width="372" height="69" viewBox="0 0 372 69" fill="none" xmlns="http://www.w3.org/2000/svg">
<path d="M174.773 57.7964H182.146L192.451 19.7921V57.7964H200.746V7.56757H189.351L179.046 44.4076L168.741 7.56757H157.095V57.7964H164.216V19.7921L174.773 57.7964ZM235.432 32.9314C235.432 24.0333 230.992 20.7069 221.776 20.7069C215.995 20.7069 211.47 22.4533 208.789 24.0333V31.1019C211.051 29.3556 216.162 27.526 220.686 27.526C224.959 27.526 226.719 29.1061 226.719 32.8483V34.8441H225.378C212.141 34.8441 206.108 39.2516 206.108 46.6529C206.108 54.0541 210.549 58.2122 217.335 58.2122C222.446 58.2122 224.708 56.6321 226.3 54.8858H226.719C226.719 55.8005 227.138 57.1311 227.389 57.7964H235.935C235.684 54.8858 235.516 51.8088 235.516 48.8982C235.432 48.8982 235.432 32.9314 235.432 32.9314ZM226.719 49.1477C225.63 50.7277 223.619 52.0583 220.435 52.0583C216.832 52.0583 215.073 49.813 215.073 46.736C215.073 42.4949 218.005 40.998 225.63 40.998H226.97V49.2309H226.719V49.1477ZM250.43 21.3722H242.386V68.2745H251.1V53.6383C253.362 56.9648 256.462 58.5448 260.316 58.5448C268.862 58.5448 274.643 51.892 274.643 39.6674C274.643 27.4429 269.03 20.7901 260.735 20.7901C256.714 20.7901 253.362 22.5364 250.849 26.1123C250.932 26.0291 250.43 21.3722 250.43 21.3722ZM257.886 51.8088C253.446 51.8088 250.932 48.0666 250.932 39.8337C250.932 31.3514 253.362 27.6092 258.305 27.6092C262.997 27.6092 265.427 31.3514 265.427 39.5843C265.427 48.0666 262.997 51.8088 257.886 51.8088ZM301.705 57.7964H311.592L297.684 38.2537L310 21.3722H301.287L288.97 38.2537V21.3722H280.257V57.7964H288.97V40.0001L301.705 57.7964ZM340.665 55.3847V48.3161C337.984 50.0625 333.543 51.6425 329.27 51.6425C322.987 51.6425 320.557 48.7319 320.054 42.4949H340.832V37.8379C340.832 25.1975 335.219 20.5406 326.505 20.5406C315.949 20.5406 310.838 28.524 310.838 39.6674C310.838 52.3078 317.122 58.5448 328.097 58.5448C334.214 58.4616 338.235 57.1311 340.665 55.3847ZM326.589 27.6092C330.862 27.6092 332.203 31.1851 332.203 35.5926V36.2579H320.054C320.305 30.5198 322.568 27.6092 326.589 27.6092ZM372 28.2745V21.3722H342.927V28.2745H353.232V57.7964H361.946V28.2745H372Z" fill="black"/>
<path d="M105.4 66.6945C124 66.6945 138.997 51.8088 138.997 33.3473C138.997 14.8857 124 0 105.4 0C86.8 0 71.8027 14.8857 71.8027 33.3473C71.6351 51.8088 86.8838 66.6945 105.4 66.6945Z" fill="#FED42B"/>
<path d="M33.5973 66.6945C52.1526 66.6945 67.1946 51.7644 67.1946 33.3473C67.1946 14.9301 52.1526 0 33.5973 0C15.042 0 0 14.9301 0 33.3473C0 51.7644 15.042 66.6945 33.5973 66.6945Z" fill="#FC3F1D"/>
<path d="M38.4567 18.711H35.1054C29.3243 18.711 26.3919 21.6216 26.3919 26.0291C26.3919 30.9356 28.4027 33.3472 32.6757 36.2578L36.027 38.6695L26.3919 53.5552H18.5162L27.7324 40C22.3703 36.2578 19.4378 32.6819 19.4378 26.4449C19.4378 18.6278 24.8 13.3056 35.1054 13.3056H45.4108V53.3057H38.7081V18.6279H38.4567V18.711Z" fill="white"/>
<mask id="mask0_706_299" style="mask-type:luminance" maskUnits="userSpaceOnUse" x="71" y="0" width="68" height="67">
<path d="M105.4 66.6945C124 66.6945 138.997 51.8088 138.997 33.3473C138.997 14.8857 124 0 105.4 0C86.8 0 71.8027 14.8857 71.8027 33.3473C71.6351 51.8088 86.8838 66.6945 105.4 66.6945Z" fill="white"/>
</mask>
<g mask="url(#mask0_706_299)">
<path d="M88.8946 18.2953L59.3189 56.7153L67.1946 65.6135L89.1459 36.7568L86.8838 52.5573L99.2 56.7985L114.197 33.0146C113.527 37.4221 112.438 47.6508 122.241 50.8109C137.657 55.4679 151.146 27.9419 157.346 13.9709L148.381 9.31396C141.427 23.7838 130.703 39.7506 126.43 38.6695C122.157 37.5885 126.011 24.0333 128.441 15.3015V15.052L114.784 10.3951L98.4459 36.84L100.708 22.3701L88.8946 18.2953Z" fill="black"/>
</g>
</svg>
