<?xml version="1.0" standalone="no"?>
<!DOCTYPE svg PUBLIC "-//W3C//DTD SVG 20010904//EN"
 "http://www.w3.org/TR/2001/REC-SVG-20010904/DTD/svg10.dtd">
<svg version="1.0" xmlns="http://www.w3.org/2000/svg"
 width="260.000000pt" height="260.000000pt" viewBox="0 0 260.000000 260.000000"
 preserveAspectRatio="xMidYMid meet">
<metadata>
Created by potrace 1.14, written by Peter Selinger 2001-2017
</metadata>
<g transform="translate(0.000000,260.000000) scale(0.100000,-0.100000)"
fill="#000000" stroke="none">
<path d="M423 2415 c3 -11 22 -67 42 -125 51 -146 65 -220 60 -320 -4 -93 -27
-185 -75 -300 -38 -91 -46 -142 -31 -195 21 -76 78 -116 249 -177 289 -101
459 -273 542 -546 23 -74 22 -102 -4 -102 -15 0 -135 86 -172 123 -98 99 -298
281 -361 329 -43 32 -145 93 -227 135 -166 87 -220 128 -247 187 -35 77 -21
125 76 255 112 151 126 188 129 352 3 97 -5 185 -25 312 -10 63 -13 67 -32 61
-99 -29 -219 -124 -274 -216 -54 -88 -71 -179 -67 -343 4 -175 28 -285 109
-492 100 -255 206 -448 570 -1038 l90 -146 40 5 c48 6 471 164 720 268 502
211 778 395 956 638 158 214 139 477 -49 676 -106 114 -221 183 -379 229 -96
28 -247 39 -327 24 -73 -13 -190 -67 -287 -130 -49 -33 -93 -59 -98 -59 -5 0
-16 30 -25 67 -33 128 -102 256 -187 342 -41 42 -152 121 -170 121 -10 0 -7
-13 31 -157 50 -187 103 -307 206 -469 64 -100 130 -236 184 -378 49 -130 57
-143 192 -299 36 -42 88 -129 93 -157 2 -12 0 -31 -6 -42 -20 -38 -63 -23
-405 143 -49 24 -131 99 -204 188 -63 76 -112 101 -266 136 -159 36 -209 54
-252 90 -74 64 -80 156 -18 289 59 127 70 202 52 348 -4 32 -12 60 -17 63 -5
4 -9 14 -9 23 0 23 -106 282 -121 296 -9 8 -10 6 -6 -9z"/>
</g>
</svg>
