<?xml version="1.0" standalone="no"?>
<!DOCTYPE svg PUBLIC "-//W3C//DTD SVG 20010904//EN"
 "http://www.w3.org/TR/2001/REC-SVG-20010904/DTD/svg10.dtd">
<svg version="1.0" xmlns="http://www.w3.org/2000/svg"
 width="260.000000pt" height="260.000000pt" viewBox="0 0 260.000000 260.000000"
 preserveAspectRatio="xMidYMid meet">
<metadata>
Created by potrace 1.14, written by Peter Selinger 2001-2017
</metadata>
<g transform="translate(0.000000,260.000000) scale(0.100000,-0.100000)"
fill="#000000" stroke="none">
<path d="M490 2402 c0 -6 18 -62 41 -124 106 -296 105 -393 -8 -690 -55 -146
-59 -201 -22 -269 32 -59 97 -100 216 -139 251 -83 401 -185 512 -348 66 -97
124 -234 146 -344 l5 -27 68 23 c88 31 229 89 305 128 l61 30 -56 23 c-30 12
-75 34 -100 49 -25 14 -89 44 -143 66 -54 22 -119 54 -145 70 -53 34 -128 111
-179 182 -35 49 -85 89 -135 108 -17 6 -105 31 -198 55 -197 52 -239 71 -275
127 -24 35 -28 52 -27 107 0 56 7 81 46 167 60 131 71 172 71 274 -1 94 -19
157 -115 400 -47 118 -68 159 -68 132z"/>
<path d="M365 2365 c-177 -72 -274 -192 -332 -413 -22 -84 -26 -118 -27 -257
-1 -269 56 -473 229 -823 133 -269 381 -682 408 -682 14 0 655 232 681 247 15
8 9 15 -36 45 -54 36 -252 215 -276 250 -29 40 -221 203 -312 263 -52 35 -153
92 -225 126 -204 99 -270 181 -243 302 11 52 34 88 111 180 33 39 74 101 91
137 l31 65 -1 185 c-1 170 -17 358 -33 387 -4 9 -22 5 -66 -12z"/>
<path d="M1080 2314 c0 -17 63 -255 85 -320 38 -113 75 -188 154 -314 85 -135
198 -361 236 -475 36 -110 55 -140 178 -293 112 -138 127 -163 127 -213 0 -16
3 -29 8 -29 16 0 331 194 399 246 132 101 254 255 304 382 32 81 32 216 0 287
-73 162 -255 304 -476 371 -78 24 -108 27 -230 28 -163 1 -235 -16 -371 -89
l-80 -43 -29 86 c-33 105 -62 163 -107 219 -46 58 -198 179 -198 157z"/>
</g>
</svg>
